<svg height="512pt" viewBox="-64 0 512 512" width="512pt" xmlns="http://www.w3.org/2000/svg" xmlns:xlink="http://www.w3.org/1999/xlink"><linearGradient id="a" gradientUnits="userSpaceOnUse" x1="191.9947507883" x2="191.9947507883" y1="0" y2="511.9997515766"><stop offset="0" stop-color="#2af598"/><stop offset="1" stop-color="#009efd"/></linearGradient><path d="m0 512v-452.085938c0-33.035156 26.914062-59.914062 60-59.914062h263.992188c33.082031 0 59.996093 26.878906 59.996093 59.914062v451.457032l-191.96875-118.945313zm60-472c-11.03125 0-20 8.933594-20 19.914062v380.058594l151.96875-94.632812 152.019531 94.191406v-379.617188c0-10.980468-8.96875-19.914062-19.996093-19.914062zm195.71875 251.085938-63.722656-32.839844-63.726563 32.839844 12.183594-69.621094-52.050781-49.734375 71.886718-10.238281 31.707032-62.96875 31.703125 62.96875 71.890625 10.238281-52.054688 49.734375zm-63.722656-77.835938 10.4375 5.378906-1.980469-11.320312 7.945313-7.59375-11.027344-1.570313-5.375-10.679687-5.375 10.679687-11.027344 1.570313 7.945312 7.59375-1.980468 11.320312zm0 0" fill="url(#a)"/></svg>