<svg id="Layer_1" height="512" viewBox="0 0 128 128" width="512" xmlns="http://www.w3.org/2000/svg" xmlns:xlink="http://www.w3.org/1999/xlink" data-name="Layer 1"><linearGradient id="linear-gradient" gradientUnits="userSpaceOnUse" x1="116.131" x2="21.407" y1="115.256" y2="20.532"><stop offset="0" stop-color="#5f69e2"/><stop offset="1" stop-color="#00b5bc"/></linearGradient><path d="m63.266 22.479a1.751 1.751 0 0 1 -2.328.84 27.633 27.633 0 1 0 7.784 5.476 1.75 1.75 0 1 1 2.478-2.475 31.084 31.084 0 1 1 -8.771-6.169 1.749 1.749 0 0 1 .837 2.328zm54.834 88.329a5.938 5.938 0 0 1 -1.751 4.227l-.443.443a5.977 5.977 0 0 1 -8.453 0l-31.184-31.188a1.749 1.749 0 0 1 0-2.475l1.974-1.974-3.733-3.732a1.749 1.749 0 0 1 0-2.475 35.759 35.759 0 1 0 -7.533 5.766 1.75 1.75 0 1 1 1.74 3.037 39.387 39.387 0 1 1 9.475-7.6l2.525 2.525 1.974-1.974a1.749 1.749 0 0 1 2.475 0l31.188 31.187a5.938 5.938 0 0 1 1.746 4.233zm-3.5 0a2.461 2.461 0 0 0 -.726-1.751l-29.95-29.95-3.947 3.947 29.954 29.946a2.538 2.538 0 0 0 3.5 0l.443-.443a2.461 2.461 0 0 0 .726-1.749z" fill="url(#linear-gradient)"/></svg>