<?xml version="1.0" standalone="no"?>
<!DOCTYPE svg PUBLIC "-//W3C//DTD SVG 20010904//EN"
 "http://www.w3.org/TR/2001/REC-SVG-20010904/DTD/svg10.dtd">
<svg xmlns="http://www.w3.org/2000/svg"
     width="1000.000000pt" height="1000.000000pt" viewBox="0 0 1000.000000 1000.000000"
     preserveAspectRatio="xMidYMid meet">
<metadata>
Created by potrace 1.15, written by Peter Selinger 2001-2017
</metadata>
<g transform="translate(0.000000,1000.000000) scale(0.100000,-0.100000)"
fill="#000000" stroke="none">
<path d="M7558 6392 c-36 -13 -92 -60 -260 -219 -117 -111 -234 -219 -260
-240 -38 -30 -191 -96 -765 -330 -395 -161 -738 -300 -763 -309 -25 -10 -46
-18 -48 -19 -2 -2 18 -41 43 -87 44 -81 50 -86 107 -112 33 -16 62 -36 65 -45
2 -9 18 -22 34 -28 27 -10 29 -14 19 -32 -6 -12 -22 -28 -36 -37 -23 -16 -26
-15 -64 12 -92 67 -126 73 -118 23 2 -19 21 -33 86 -65 99 -49 125 -70 102
-84 -28 -18 -61 -10 -107 25 -26 20 -51 34 -57 32 -25 -8 -117 -337 -136 -490
-11 -79 -10 -96 10 -180 53 -221 64 -247 140 -330 44 -49 56 -56 93 -59 37 -3
45 -8 72 -48 17 -25 43 -83 59 -130 16 -47 30 -87 32 -89 1 -1 13 4 25 13 26
18 47 10 97 -37 42 -40 53 -29 62 60 4 37 13 89 20 114 16 57 10 76 -32 94
-18 7 -44 25 -57 39 -24 25 -24 27 -12 93 7 38 14 86 15 108 1 39 2 40 33 37
27 -2 34 2 39 22 5 20 13 24 66 30 119 12 114 15 128 -59 14 -77 6 -74 175
-47 100 16 113 16 149 2 l38 -15 -5 -111 -4 -111 44 5 c38 4 49 1 85 -28 l41
-33 19 22 c10 13 18 33 18 45 0 39 15 49 61 43 39 -5 62 -21 72 -51 2 -6 35 4
83 26 l79 36 3 46 c3 41 6 46 28 46 13 0 24 2 24 5 0 20 -53 118 -79 144 -43
44 -49 76 -20 107 12 13 40 30 62 36 32 10 37 15 32 32 -19 69 -25 126 -15
174 24 130 73 132 187 8 57 -62 65 -67 164 -102 57 -20 112 -40 121 -45 13 -7
35 -1 80 22 l62 31 105 -17 c59 -9 114 -19 124 -22 17 -5 18 -3 3 26 -25 47
-21 80 11 92 34 13 22 24 -51 46 -32 10 -58 23 -58 28 0 9 94 54 144 69 15 4
13 12 -17 62 -40 66 -52 116 -37 149 9 19 34 31 123 60 62 19 118 35 125 35 7
0 30 -21 52 -46 l39 -45 99 -10 c54 -5 110 -11 123 -12 22 -2 28 7 61 93 20
52 45 109 56 127 18 30 18 32 1 51 -18 19 -94 45 -173 57 -58 9 -139 59 -175
108 -56 77 -56 77 -5 156 62 97 61 119 -9 193 -48 51 -57 57 -78 49 -21 -8
-39 0 -122 56 l-98 65 7 52 6 53 -98 44 c-88 40 -109 55 -229 168 -73 68 -133
127 -133 131 0 4 34 20 75 35 49 17 73 31 68 39 -3 6 -14 22 -24 36 -12 19
-15 30 -8 43 6 10 8 26 4 36 -3 11 -1 22 5 26 12 7 14 25 3 24 -5 0 -29 -8
-55 -17z"/>
</g>
</svg>
