<?xml version="1.0" standalone="no"?>
<!DOCTYPE svg PUBLIC "-//W3C//DTD SVG 20010904//EN"
 "http://www.w3.org/TR/2001/REC-SVG-20010904/DTD/svg10.dtd">
<svg xmlns="http://www.w3.org/2000/svg"
     width="1000.000000pt" height="1000.000000pt" viewBox="0 0 1000.000000 1000.000000"
     preserveAspectRatio="xMidYMid meet">
<metadata>
Created by potrace 1.15, written by Peter Selinger 2001-2017
</metadata>
<g transform="translate(0.000000,1000.000000) scale(0.100000,-0.100000)"
fill="#000000" stroke="none">
<path d="M7180 8972 c0 -43 -9 -67 -51 -144 -57 -102 -57 -104 -40 -257 15
-136 14 -233 -1 -254 -8 -9 -48 -23 -100 -34 -79 -16 -89 -16 -103 -2 -14 14
-14 20 0 58 8 24 15 47 15 52 0 42 -232 -53 -407 -167 -68 -44 -83 -58 -83
-79 0 -36 -21 -83 -92 -208 l-62 -108 -55 6 c-31 3 -202 15 -381 26 -179 11
-424 26 -544 34 -121 8 -241 15 -268 15 -44 0 -48 -2 -48 -24 0 -21 8 -26 68
-41 37 -9 75 -24 85 -32 44 -41 45 -162 2 -206 -22 -21 -23 -28 -15 -58 6 -19
10 -44 10 -57 0 -35 -49 -78 -98 -87 -56 -9 -88 12 -115 75 -16 39 -26 49 -50
54 -37 8 -95 7 -124 0 -24 -7 -55 -73 -73 -159 -14 -63 -14 -222 0 -295 12
-65 48 -178 59 -184 4 -3 35 8 68 23 71 34 90 36 518 56 l310 15 27 -30 c39
-42 41 -62 25 -196 l-15 -119 46 -82 c25 -45 52 -85 60 -88 8 -3 46 -26 84
-51 l68 -45 30 -97 c16 -53 37 -128 46 -165 21 -85 42 -100 110 -75 41 15 44
14 49 -3 5 -14 16 -19 39 -19 28 0 36 -5 47 -32 7 -18 14 -35 15 -37 2 -2 24
10 49 25 l46 29 -7 55 c-4 32 -17 70 -30 90 -25 36 -31 108 -18 191 l6 37 317
153 c334 161 697 330 794 369 46 18 57 26 50 39 -10 22 -7 90 5 122 9 22 24
31 82 48 l71 22 -3 51 c-3 49 -1 53 30 74 19 13 53 26 78 30 24 3 44 8 44 10
0 2 -18 31 -39 64 -44 67 -59 116 -42 133 15 15 68 -11 119 -58 22 -19 43 -35
47 -35 4 0 5 26 3 57 l-3 56 60 24 c366 147 644 267 693 299 l23 15 -21 26
c-35 45 -52 120 -57 269 l-6 140 -28 16 c-35 21 -46 60 -30 112 7 23 15 55 18
71 5 30 4 31 -70 52 -118 35 -219 124 -276 243 -14 30 -26 56 -27 58 -1 2 -16
-4 -33 -13 -21 -11 -31 -23 -31 -39 0 -32 -16 -43 -80 -51 -30 -3 -63 -9 -72
-11 -12 -4 -27 15 -60 75 -48 90 -43 88 -153 67 l-69 -14 -206 80 c-113 44
-211 82 -217 85 -10 4 -13 -9 -13 -45z"/>
</g>
</svg>
