<?xml version="1.0" standalone="no"?>
<!DOCTYPE svg PUBLIC "-//W3C//DTD SVG 20010904//EN"
 "http://www.w3.org/TR/2001/REC-SVG-20010904/DTD/svg10.dtd">
<svg xmlns="http://www.w3.org/2000/svg"
     width="1000.000000pt" height="1000.000000pt" viewBox="0 0 1000.000000 1000.000000"
     preserveAspectRatio="xMidYMid meet">
<metadata>
Created by potrace 1.15, written by Peter Selinger 2001-2017
</metadata>
<g transform="translate(0.000000,1000.000000) scale(0.100000,-0.100000)"
fill="#000000" stroke="none">
<path d="M4965 6930 c-55 -4 -112 -10 -125 -14 -46 -13 -100 -39 -100 -48 0
-5 16 -32 36 -60 43 -63 43 -61 -36 -229 -85 -180 -110 -251 -110 -313 0 -71
17 -90 110 -124 42 -16 105 -50 140 -76 36 -26 101 -71 144 -99 75 -49 80 -55
96 -107 9 -30 26 -74 38 -96 37 -73 138 -198 193 -239 55 -42 104 -108 114
-156 4 -16 12 -29 18 -29 7 0 344 129 751 287 l739 287 308 300 309 299 -26
34 -25 34 17 52 c23 70 22 69 52 53 24 -12 31 -12 64 5 21 11 38 25 38 31 0 6
-11 31 -25 55 l-26 43 -40 -21 c-23 -11 -43 -18 -46 -16 -2 3 -7 27 -11 54 -4
26 -12 48 -18 48 -6 0 -287 -119 -623 -265 l-613 -265 7 -80 c4 -52 11 -84 21
-91 12 -9 14 -34 12 -120 l-3 -109 -65 -23 -65 -23 -25 30 c-28 33 -80 48
-120 33 -20 -7 -34 -3 -73 22 -48 31 -48 31 -44 76 4 37 -3 66 -46 171 l-52
127 -82 43 -82 44 -41 101 c-44 113 -48 139 -23 166 20 23 21 93 2 167 l-13
51 -275 -1 c-152 -1 -321 -5 -376 -9z"/>
</g>
</svg>
