<?xml version="1.0" standalone="no"?>
<!DOCTYPE svg PUBLIC "-//W3C//DTD SVG 20010904//EN"
 "http://www.w3.org/TR/2001/REC-SVG-20010904/DTD/svg10.dtd">
<svg xmlns="http://www.w3.org/2000/svg"
     width="1000.000000pt" height="1000.000000pt" viewBox="0 0 1000.000000 1000.000000"
     preserveAspectRatio="xMidYMid meet">
<metadata>
Created by potrace 1.15, written by Peter Selinger 2001-2017
</metadata>
<g transform="translate(0.000000,1000.000000) scale(0.100000,-0.100000)"
fill="#000000" stroke="none">
<path d="M4134 5754 c-21 -15 -41 -28 -43 -30 -2 -2 20 -27 49 -56 77 -78 133
-155 133 -183 0 -32 -26 -61 -75 -86 -43 -22 -65 -51 -74 -97 -12 -58 1 -79
66 -108 72 -32 81 -57 17 -48 -98 14 -156 -26 -202 -140 -43 -105 -109 -150
-187 -127 -44 14 -43 14 -52 -15 -4 -14 0 -27 14 -39 20 -18 26 -58 14 -89 -4
-12 -20 -16 -54 -16 -71 0 -109 -10 -115 -31 -4 -12 -18 -19 -43 -21 -34 -3
-37 -6 -52 -55 -15 -51 -15 -52 -40 -38 -14 8 -30 14 -37 15 -6 0 -62 -64
-123 -142 l-113 -141 29 -21 c76 -55 75 -53 62 -138 l-11 -77 36 -45 c38 -46
113 -90 144 -84 12 2 19 14 21 33 8 92 39 115 155 115 l77 0 0 -39 c0 -27 8
-49 25 -69 22 -26 23 -32 13 -60 -11 -27 -10 -34 9 -54 15 -17 23 -43 27 -93
12 -120 16 -136 42 -145 31 -12 31 -42 -1 -97 l-26 -43 55 0 c47 0 57 3 67 23
6 12 13 23 14 25 2 2 47 -17 100 -42 l97 -46 -56 -47 c-31 -26 -56 -52 -56
-58 0 -5 18 -30 40 -55 l39 -45 38 23 c21 12 57 32 81 44 l42 22 16 -23 c35
-50 193 -129 321 -161 49 -13 51 -14 47 -44 -9 -71 -24 -239 -24 -269 0 -27 6
-36 34 -51 l34 -18 -59 -98 c-32 -54 -59 -99 -59 -101 0 -2 39 -3 86 -1 111 4
140 -7 155 -61 15 -58 3 -132 -35 -210 l-33 -68 74 -50 73 -50 0 -117 0 -118
144 0 145 1 31 -30 c68 -65 132 -246 164 -467 9 -57 21 -191 27 -298 6 -107
13 -196 14 -197 2 -4 665 255 673 262 2 2 -19 32 -48 66 -85 103 -86 124 -4
147 41 12 94 46 94 62 0 4 -14 13 -30 20 -45 19 -130 102 -130 128 0 41 -41
130 -81 176 l-40 45 10 73 c13 94 0 122 -108 241 -120 130 -136 172 -78 208
29 18 43 20 137 15 58 -3 136 -8 173 -12 85 -8 107 7 107 72 0 78 -36 150
-107 218 -66 62 -113 129 -113 160 0 9 10 46 22 81 l23 64 -21 27 c-11 15 -61
50 -111 78 -51 28 -103 62 -117 75 -23 22 -25 29 -19 81 l5 56 -55 48 c-69 59
-80 87 -71 193 l7 82 -41 11 c-30 8 -52 23 -79 57 -73 90 -138 155 -180 180
-83 48 -123 116 -123 209 0 51 -25 79 -83 94 -70 18 -92 29 -140 73 l-47 42 8
83 c5 52 13 86 21 92 17 10 50 0 123 -36 59 -29 83 -27 55 3 -8 10 -39 66 -67
124 -50 103 -74 189 -53 189 16 0 27 -19 58 -100 62 -164 120 -260 159 -260
32 0 47 38 56 150 5 52 14 109 20 127 6 17 10 48 8 69 -3 36 -6 39 -42 46 -22
5 -45 13 -53 19 -39 33 13 83 62 61 14 -7 28 -12 31 -12 3 0 4 35 2 78 -3 74
-4 77 -28 80 -41 6 -53 22 -34 43 9 10 25 21 35 24 17 6 19 17 19 92 0 77 -2
84 -17 78 -10 -4 -33 -13 -52 -20 -27 -10 -39 -24 -61 -71 -15 -33 -44 -74
-64 -93 -31 -30 -44 -35 -93 -38 -35 -3 -80 2 -113 12 -30 9 -100 22 -155 30
-55 7 -113 17 -130 21 -80 19 -117 59 -92 98 14 20 9 37 -63 228 l-79 206 6
94 6 95 -60 16 c-79 23 -93 22 -139 -9z"/>
</g>
</svg>
