<?xml version="1.0" standalone="no"?>
<!DOCTYPE svg PUBLIC "-//W3C//DTD SVG 20010904//EN"
 "http://www.w3.org/TR/2001/REC-SVG-20010904/DTD/svg10.dtd">
<svg xmlns="http://www.w3.org/2000/svg"
     width="1000.000000pt" height="1000.000000pt" viewBox="0 0 1000.000000 1000.000000"
     preserveAspectRatio="xMidYMid meet">
<metadata>
Created by potrace 1.15, written by Peter Selinger 2001-2017
</metadata>
<g transform="translate(0.000000,1000.000000) scale(0.100000,-0.100000)"
fill="#000000" stroke="none">
<path d="M2430 8795 l0 -132 -37 -7 c-21 -3 -141 -6 -266 -6 -177 0 -259 -5
-365 -20 -182 -27 -182 -27 -182 -49 0 -16 18 -25 93 -48 88 -27 92 -30 95
-59 5 -50 54 -87 150 -114 l82 -23 -6 -36 c-4 -20 -7 -37 -8 -38 -2 -2 -33 1
-70 5 -61 8 -69 7 -81 -11 -12 -17 -11 -23 7 -47 17 -23 18 -30 7 -48 -7 -12
-25 -22 -39 -24 -21 -3 -25 -9 -28 -40 -2 -21 -6 -38 -8 -38 -3 0 -57 45 -120
100 l-115 100 -48 -24 c-44 -23 -49 -24 -64 -9 -14 14 -20 15 -44 4 l-28 -13
70 -66 c449 -420 804 -722 849 -722 7 0 41 12 77 26 59 25 80 27 269 35 113 4
273 8 356 8 l152 1 26 34 c39 52 139 97 226 104 82 6 87 0 71 -80 -8 -42 -6
-98 12 -266 l22 -212 103 -109 c96 -103 107 -111 180 -139 42 -17 95 -33 118
-36 37 -7 43 -13 78 -73 50 -87 79 -113 125 -113 54 0 64 11 56 58 -6 40 -6
41 30 51 23 6 77 6 153 1 227 -18 342 -9 342 26 0 7 -12 16 -27 20 -88 19 -99
28 -78 60 14 21 13 27 -4 66 -11 24 -22 55 -25 69 -9 43 -75 134 -106 146 -46
17 -84 85 -88 157 -4 55 -1 65 22 93 14 17 38 36 53 42 l28 11 -3 118 c-3 92
-7 124 -22 149 l-19 32 61 31 c108 54 124 41 120 -101 -3 -104 8 -130 28 -61
19 65 23 156 10 196 -26 80 -102 139 -225 175 -111 32 -212 108 -287 215 -65
94 -90 175 -90 294 l1 92 -42 1 c-67 2 -92 12 -90 37 4 32 -36 44 -121 37 -39
-3 -81 -8 -93 -11 -19 -3 -24 2 -32 33 -5 21 -13 84 -17 141 l-7 102 -47 0
c-53 0 -51 3 -93 -130 l-14 -45 -19 93 c-10 51 -21 97 -24 101 -3 5 -227 11
-497 13 l-493 5 0 -132z"/>
</g>
</svg>
