<?xml version="1.0" standalone="no"?>
<!DOCTYPE svg PUBLIC "-//W3C//DTD SVG 20010904//EN"
 "http://www.w3.org/TR/2001/REC-SVG-20010904/DTD/svg10.dtd">
<svg xmlns="http://www.w3.org/2000/svg"
     width="1000.000000pt" height="1000.000000pt" viewBox="0 0 1000.000000 1000.000000"
     preserveAspectRatio="xMidYMid meet">
<metadata>
Created by potrace 1.15, written by Peter Selinger 2001-2017
</metadata>
<g transform="translate(0.000000,1000.000000) scale(0.100000,-0.100000)"
fill="#000000" stroke="none">
<path d="M4535 6074 c-8 -20 -15 -39 -15 -42 0 -3 -11 -20 -25 -38 -21 -28
-25 -43 -25 -104 0 -69 -1 -72 -41 -115 -45 -49 -58 -89 -59 -186 0 -48 8 -74
58 -180 105 -224 109 -236 87 -306 -11 -36 41 -56 167 -63 89 -5 112 -9 137
-28 25 -18 43 -22 104 -22 74 0 75 0 110 39 53 58 62 97 61 246 -2 218 -43
384 -127 512 -46 71 -152 174 -232 225 -65 42 -168 98 -180 98 -2 0 -12 -16
-20 -36z"/>
</g>
</svg>
