<?xml version="1.0" standalone="no"?>
<!DOCTYPE svg PUBLIC "-//W3C//DTD SVG 20010904//EN"
 "http://www.w3.org/TR/2001/REC-SVG-20010904/DTD/svg10.dtd">
<svg xmlns="http://www.w3.org/2000/svg"
     width="1000.000000pt" height="1000.000000pt" viewBox="0 0 1000.000000 1000.000000"
     preserveAspectRatio="xMidYMid meet">
<metadata>
Created by potrace 1.15, written by Peter Selinger 2001-2017
</metadata>
<g transform="translate(0.000000,1000.000000) scale(0.100000,-0.100000)"
fill="#000000" stroke="none">
<path d="M3315 7605 c-27 -8 -53 -14 -57 -15 -4 0 -30 -20 -57 -44 -57 -51
-94 -61 -256 -71 -235 -15 -549 -58 -617 -84 -33 -12 -33 -11 -13 -186 11 -96
19 -133 31 -140 9 -5 157 -110 329 -232 l314 -223 88 0 88 0 1 33 c0 37 61
138 96 161 13 8 42 17 65 21 34 5 44 4 49 -9 5 -13 22 -16 78 -16 l72 0 21
-44 22 -44 61 5 c51 5 63 3 74 -12 13 -18 15 -18 51 3 27 17 46 21 70 16 32
-6 33 -8 28 -40 -5 -29 -3 -34 14 -34 24 0 100 -63 108 -91 5 -16 14 -20 39
-18 21 2 42 -4 59 -18 24 -19 26 -25 20 -72 l-6 -51 31 3 c18 2 41 12 52 22
19 17 21 17 52 -8 18 -13 51 -40 72 -59 l40 -35 -22 -37 c-21 -35 -21 -38 -6
-76 9 -22 19 -40 23 -40 3 0 19 16 35 36 l28 36 25 -24 c24 -23 25 -23 40 -3
11 15 13 36 8 90 l-6 70 -72 67 -72 67 -55 -5 c-43 -4 -63 -1 -90 15 -19 11
-54 29 -76 40 -47 22 -169 133 -205 186 -17 24 -32 35 -49 35 -14 0 -45 12
-69 25 -33 19 -47 23 -57 14 -20 -17 -42 -4 -57 33 -8 18 -47 64 -88 102 -113
105 -115 108 -123 266 -11 218 -17 270 -32 270 -19 0 -18 10 6 72 11 29 20 54
20 56 0 7 -82 -1 -125 -13z"/>
</g>
</svg>
