<?xml version="1.0" standalone="no"?>
<!DOCTYPE svg PUBLIC "-//W3C//DTD SVG 20010904//EN"
 "http://www.w3.org/TR/2001/REC-SVG-20010904/DTD/svg10.dtd">
<svg xmlns="http://www.w3.org/2000/svg"
     width="1000.000000pt" height="1000.000000pt" viewBox="0 0 1000.000000 1000.000000"
     preserveAspectRatio="xMidYMid meet">
<metadata>
Created by potrace 1.15, written by Peter Selinger 2001-2017
</metadata>
<g transform="translate(0.000000,1000.000000) scale(0.100000,-0.100000)"
fill="#000000" stroke="none">
<path d="M3249 6718 c-12 -23 -31 -55 -42 -69 -19 -27 -19 -29 -2 -102 10 -45
15 -87 11 -104 -5 -17 -44 -63 -102 -119 -52 -50 -94 -95 -94 -101 0 -6 6 -15
13 -21 6 -6 199 -61 427 -122 l415 -112 88 -94 c51 -54 97 -94 108 -94 10 0
39 10 64 22 l45 22 83 -27 c103 -33 117 -34 148 -1 19 20 25 40 30 100 5 64
10 80 38 114 29 36 32 46 29 98 l-3 57 -53 0 c-50 -1 -56 -4 -87 -40 l-34 -40
-25 58 c-24 54 -28 57 -61 57 -19 0 -35 3 -35 8 0 4 11 25 25 47 32 53 31 77
-5 103 -38 28 -43 28 -85 -9 -32 -28 -38 -30 -63 -20 -16 7 -36 25 -45 41 -17
27 -17 32 -2 60 23 44 17 75 -15 74 -14 -1 -33 -4 -42 -9 -14 -5 -18 -2 -18
14 0 11 -11 28 -25 37 -14 9 -25 24 -25 33 0 25 -20 41 -54 41 -19 0 -40 10
-59 27 l-28 28 -42 -23 -41 -23 -17 22 c-14 19 -22 21 -61 15 -41 -6 -47 -4
-62 19 -15 23 -22 25 -87 25 -64 0 -73 3 -91 25 -15 19 -29 25 -59 25 -35 0
-40 -3 -60 -42z"/>
</g>
</svg>
