<?xml version="1.0" standalone="no"?>
<!DOCTYPE svg PUBLIC "-//W3C//DTD SVG 20010904//EN"
 "http://www.w3.org/TR/2001/REC-SVG-20010904/DTD/svg10.dtd">
<svg xmlns="http://www.w3.org/2000/svg"
     width="1000.000000pt" height="1000.000000pt" viewBox="0 0 1000.000000 1000.000000"
     preserveAspectRatio="xMidYMid meet">
<metadata>
Created by potrace 1.15, written by Peter Selinger 2001-2017
</metadata>
<g transform="translate(0.000000,1000.000000) scale(0.100000,-0.100000)"
fill="#000000" stroke="none">
<path d="M3022 6122 c-10 -31 -31 -56 -99 -113 -119 -102 -120 -103 -133 -146
-9 -28 -9 -49 -1 -78 18 -68 216 -415 254 -446 19 -16 45 -50 57 -76 12 -26
35 -63 51 -81 16 -18 38 -50 49 -72 23 -46 26 -37 -53 -169 -32 -53 -46 -86
-39 -89 7 -2 12 -20 12 -41 0 -50 15 -64 48 -43 24 16 25 15 81 -48 31 -36 70
-80 88 -100 l32 -35 16 23 c10 13 27 35 40 50 21 24 26 25 44 14 18 -11 21
-10 21 7 0 40 10 50 46 44 33 -5 34 -4 34 26 l0 31 84 -6 c80 -7 84 -6 91 15
4 13 5 24 3 25 -1 1 -16 10 -32 20 -26 16 -28 21 -22 59 4 23 10 45 15 50 4 4
29 -2 55 -13 53 -24 112 -28 145 -11 27 15 61 68 61 96 0 26 44 120 61 131 7
4 38 13 68 20 l56 11 -31 12 c-29 11 -32 17 -38 65 -7 51 -5 57 36 124 41 67
45 71 83 74 35 3 40 6 43 30 3 23 -26 57 -187 230 l-190 203 -408 119 c-224
65 -413 120 -419 123 -6 2 -16 -14 -22 -35z"/>
</g>
</svg>
