<?xml version="1.0" standalone="no"?>
<!DOCTYPE svg PUBLIC "-//W3C//DTD SVG 20010904//EN"
 "http://www.w3.org/TR/2001/REC-SVG-20010904/DTD/svg10.dtd">
<svg xmlns="http://www.w3.org/2000/svg"
     width="1000.000000pt" height="1000.000000pt" viewBox="0 0 1000.000000 1000.000000"
     preserveAspectRatio="xMidYMid meet">
<metadata>
Created by potrace 1.15, written by Peter Selinger 2001-2017
</metadata>
<g transform="translate(0.000000,1000.000000) scale(0.100000,-0.100000)"
fill="#000000" stroke="none">
<path d="M1465 8039 c-4 -6 -12 -63 -18 -127 l-12 -117 -65 -10 -65 -10 -9
-57 c-8 -54 -11 -59 -57 -88 -26 -18 -51 -40 -54 -51 -9 -27 -53 -47 -117 -55
-71 -8 -137 -55 -178 -126 -29 -52 -39 -101 -21 -113 5 -3 12 -18 16 -34 6
-29 44 -70 82 -90 16 -8 22 -22 25 -62 3 -48 0 -55 -34 -94 -31 -35 -38 -51
-38 -85 0 -75 -47 -123 -136 -137 -20 -3 -38 -11 -40 -17 -2 -6 -13 -63 -23
-126 -21 -123 -19 -133 27 -145 40 -10 72 -44 72 -77 0 -21 -19 -49 -81 -116
-96 -103 -136 -158 -161 -224 -24 -64 -23 -74 9 -90 24 -12 28 -19 25 -52 -2
-27 2 -45 16 -60 48 -52 52 -84 17 -117 -13 -13 -25 -33 -25 -44 0 -11 -14
-38 -30 -59 -39 -51 -39 -93 0 -173 25 -53 33 -63 55 -63 38 0 94 26 101 47
14 46 61 123 74 123 21 0 95 -51 120 -83 27 -34 42 -34 87 0 32 24 34 30 30
67 -2 28 5 69 24 126 15 47 34 117 42 155 13 64 16 70 38 69 13 0 130 -26 260
-57 202 -49 240 -56 265 -46 16 6 46 11 67 10 21 0 48 5 60 11 12 7 69 28 127
48 76 26 106 40 108 53 2 11 -3 20 -15 23 -10 3 -35 32 -57 64 -32 50 -54 70
-137 122 -54 35 -99 68 -99 74 0 5 6 19 14 29 14 19 15 19 35 1 16 -14 31 -18
66 -14 l45 6 0 -33 c0 -48 52 -115 90 -115 23 0 35 -8 55 -37 14 -21 25 -48
25 -60 0 -14 10 -27 27 -35 18 -9 30 -23 33 -43 4 -24 12 -31 42 -38 l36 -9 7
-76 c10 -113 34 -221 60 -274 34 -68 169 -242 255 -329 42 -42 113 -104 159
-138 87 -64 283 -167 338 -177 29 -6 33 -3 54 37 12 24 35 63 50 86 42 60 39
96 -12 147 -23 22 -48 59 -56 81 -7 22 -31 60 -53 86 -56 67 -195 281 -238
367 -27 55 -36 87 -36 125 -1 76 18 111 88 161 76 55 141 122 155 159 6 16 11
48 11 72 0 39 5 48 43 82 122 109 160 167 155 236 l-3 42 -105 5 -105 5 -58
48 c-64 52 -202 146 -452 307 -88 57 -163 108 -167 113 -7 12 -23 118 -39 262
-6 55 -16 106 -22 113 -6 8 -32 24 -57 37 -26 13 -187 150 -363 309 -175 157
-324 286 -332 286 -8 0 -17 -5 -20 -11z"/>
</g>
</svg>
